HIERARCHY
ROOT Hips
{
	OFFSET 0.000000 0.000000 0.000000
	CHANNELS 6 Xposition Yposition Zposition Zrotation Yrotation Xrotation 
	JOINT LHipJoint
	{
		OFFSET 0.000000 0.000000 0.000000
		CHANNELS 3 Zrotation Yrotation Xrotation
		JOINT LeftUpLeg
		{
			OFFSET 1.363060 -1.794630 0.839290
			CHANNELS 3 Zrotation Yrotation Xrotation
			JOINT LeftLeg
			{
				OFFSET 2.448110 -6.726130 0.000000
				CHANNELS 3 Zrotation Yrotation Xrotation
				JOINT LeftFoot
				{
					OFFSET 2.562200 -7.039590 0.000000
					CHANNELS 3 Zrotation Yrotation Xrotation
					JOINT LeftToeBase
					{
						OFFSET 0.157640 -0.433110 2.322550
						CHANNELS 3 Zrotation Yrotation Xrotation
						End Site
						{
							OFFSET 0.000000 0.000000 0.000000
						}
					}
				}
			}
		}
	}
	JOINT RHipJoint
	{
		OFFSET 0.000000 0.000000 0.000000
		CHANNELS 3 Zrotation Yrotation Xrotation
		JOINT RightUpLeg
		{
			OFFSET -1.305520 -1.794630 0.839290
			CHANNELS 3 Zrotation Yrotation Xrotation
			JOINT RightLeg
			{
				OFFSET -2.542530 -6.985550 0.000000
				CHANNELS 3 Zrotation Yrotation Xrotation
				JOINT RightFoot
				{
					OFFSET -2.568260 -7.056230 0.000000
					CHANNELS 3 Zrotation Yrotation Xrotation
					JOINT RightToeBase
					{
						OFFSET -0.164730 -0.452590 2.363150
						CHANNELS 3 Zrotation Yrotation Xrotation
						End Site
						{
							OFFSET 0.000000 0.000000 0.000000
						}
					}
				}
			}
		}
	}
}
MOTION
Frames: 34
Frame Time: 0.008333
0.044345 17.856378 -0.339246 27.889996 81.082891 46.152975 -12.058570 4.771872 -0.691371 -6.510680 18.221729 -5.952189 -2.322070 0.764671 10.127478 0.105762 -10.727938 23.922729 -5.150500 -0.000000 -69.925200 8.531695 -1.122327 5.829173 6.454698 12.386622 -34.820312 2.294015 0.142178 11.195917 0.327308 1.160494 4.628192 -0.409301 0.000000 -45.971400
0.279107 17.898672 -0.262147 26.938284 80.574823 45.110121 -12.126077 4.905506 -0.804202 -5.945877 19.155555 -5.383589 -2.277411 0.806800 10.164492 0.204171 -10.939366 25.405570 -5.536000 0.000000 -68.234000 8.511665 -1.191010 5.948568 7.215027 12.175332 -34.416522 2.561617 0.371973 8.317587 0.617816 2.275897 6.744406 -0.132599 -0.000000 -47.600900
0.512341 17.929699 -0.184505 26.077346 80.040360 44.138717 -12.152896 5.030060 -0.861241 -5.446182 19.719255 -4.788390 -2.204184 0.846811 10.407638 0.292952 -10.422615 26.313697 -5.464200 0.000000 -66.236000 8.502789 -1.242315 5.993562 8.135840 11.747845 -34.080705 2.813996 0.569284 5.899407 0.853163 3.217962 8.621350 0.162199 -0.000000 -49.082100
0.743728 17.949714 -0.106715 25.241321 79.480512 43.170593 -12.144688 5.143403 -0.867881 -5.011100 19.918164 -4.166359 -2.100347 0.887847 10.861313 0.373333 -9.217271 26.675546 -4.945399 -0.000000 -63.998700 8.496628 -1.285916 5.966716 9.221038 11.139621 -33.779718 3.044794 0.735606 3.902134 1.025070 3.887749 10.291501 0.416200 0.000000 -50.434500
0.972883 17.958824 -0.028887 24.432967 78.893687 42.204280 -12.104466 5.243143 -0.831797 -4.651109 19.772154 -3.516819 -1.967366 0.931147 11.523460 0.451842 -7.424954 26.551653 -4.055300 0.000000 -61.666200 8.490591 -1.329658 5.871884 10.449301 10.380248 -33.487953 3.247452 0.870840 2.298194 1.129435 4.211527 11.765691 0.575700 0.000000 -51.570600
1.199650 17.957018 0.048861 23.643325 78.280684 41.227699 -12.039407 5.325683 -0.769153 -4.361281 19.349443 -2.855789 -1.811745 0.977803 12.412522 0.536285 -5.226378 26.003479 -2.925600 -0.000001 -59.252999 8.481023 -1.379651 5.722273 11.778052 9.528909 -33.169506 3.414650 0.978638 1.032934 1.160652 4.107623 13.051264 0.582799 -0.000000 -52.335300
1.423798 17.944135 0.126560 22.910052 77.642417 40.273297 -11.953766 5.389585 -0.694494 -4.143950 18.721045 -2.194756 -1.642005 1.028570 13.530980 0.633539 -2.810450 25.122058 -1.696699 -0.000000 -56.866800 8.469414 -1.437941 5.528813 13.151935 8.625152 -32.804031 3.539664 1.060614 0.080969 1.118002 3.552770 14.115416 0.401500 0.000000 -52.496200
1.645347 17.919878 0.204184 22.249359 76.983722 39.356580 -11.854536 5.434582 -0.625677 -3.985579 17.986639 -1.558847 -1.469117 1.085349 14.890537 0.745230 -0.381723 23.992398 -0.504900 0.000000 -54.511299 8.455625 -1.503489 5.309806 14.506180 7.730976 -32.371640 3.616271 1.121542 -0.594974 1.000567 2.544568 14.911964 0.010800 -0.000000 -51.810300
1.864285 17.884013 0.281974 21.750058 76.306902 38.559555 -11.738609 5.465052 -0.566224 -3.905343 17.181290 -0.935097 -1.299258 1.148795 16.435638 0.872309 1.953701 22.758029 0.578800 -0.000001 -52.542300 8.447803 -1.570870 5.065554 15.783564 6.839039 -31.890366 3.642637 1.157690 -0.946205 0.820485 1.215019 15.318793 -0.541500 0.000000 -49.986000
2.080885 17.836249 0.359814 21.365082 75.623355 37.846582 -11.616981 5.482632 -0.534008 -3.861028 16.425935 -0.371072 -1.142894 1.222107 18.184893 1.004200 4.024849 21.465968 1.472500 -0.000000 -50.770600 8.440423 -1.634622 4.826473 16.920088 6.054730 -31.345047 3.617009 1.178827 -1.027677 0.578365 -0.391290 15.280518 -1.222900 0.000000 -46.900599
2.295424 17.776457 0.437805 21.100968 74.940052 37.232479 -11.491831 5.491709 -0.532131 -3.838817 15.770522 0.118502 -1.003904 1.306071 20.100279 1.131534 5.765192 20.192003 2.157200 0.000001 -49.266500 8.434018 -1.687625 4.606201 17.873658 5.422014 -30.757631 3.543579 1.185964 -0.816319 0.286239 -2.126216 14.698842 -1.938300 -0.000000 -42.495300
2.508175 17.704743 0.515929 20.947060 74.263304 36.717446 -11.364913 5.496046 -0.558941 -3.824502 15.241357 0.525060 -0.882029 1.399839 22.131883 1.246842 7.159482 19.003940 2.646400 -0.000000 -48.197400 8.427876 -1.723626 4.415923 18.620682 4.979984 -30.156048 3.430385 1.178881 -0.282424 -0.042503 -3.834648 13.491428 -2.574100 -0.000000 -36.805700
2.719582 17.621371 0.594013 20.853013 73.599103 36.267981 -11.242148 5.497576 -0.613462 -3.787151 14.871856 0.823536 -0.776440 1.501789 24.255490 1.342324 8.198492 17.913614 2.955600 -0.000000 -47.454300 8.416918 -1.739167 4.270688 19.160398 4.781159 -29.570081 3.287978 1.158203 0.589617 -0.398623 -5.405711 11.624167 -3.033200 0.000000 -30.028500
2.929945 17.526830 0.671838 20.769125 72.950999 35.849817 -11.129660 5.497335 -0.691438 -3.698381 14.678497 0.991081 -0.684550 1.609225 26.453143 1.413854 8.904486 16.909089 3.109800 0.000001 -46.918600 8.396191 -1.734021 4.178288 19.516400 4.849608 -29.041909 3.129005 1.120465 1.833103 -0.773327 -6.749229 9.100421 -3.237400 0.000000 -22.493399
3.139506 17.421980 0.749035 20.654750 72.319616 35.431607 -11.032369 5.495491 -0.784246 -3.541200 14.649042 1.020625 -0.601410 1.718428 28.697199 1.463808 9.344693 15.987516 3.149899 -0.000000 -46.614000 8.362103 -1.710262 4.134722 19.731966 5.166233 -28.616736 2.968430 1.059043 3.492906 -1.156502 -7.790547 5.942919 -3.134300 0.000000 -14.446300
3.348401 17.307802 0.825138 20.479510 71.702892 34.987814 -10.955570 5.491940 -0.883038 -3.304436 14.768937 0.902480 -0.523588 1.826287 30.981247 1.496058 9.589963 15.110768 3.109500 0.000000 -46.370300 8.313931 -1.673633 4.128145 19.860243 5.674463 -28.346032 2.821165 0.962957 5.618381 -1.535888 -8.484752 2.234380 -2.718300 0.000000 -6.358401
3.556598 17.185568 0.899681 20.234766 71.095207 34.507784 -10.902120 5.486681 -0.977466 -2.994444 15.006682 0.638526 -0.447641 1.930328 33.298447 1.517996 9.732284 14.247333 3.025700 0.000000 -46.105000 8.256307 -1.631366 4.136975 19.952472 6.276292 -28.274302 2.701562 0.819245 8.252509 -1.894228 -8.800344 -1.911542 177.972600 0.000000 -1.354700
3.763858 17.056725 0.972160 19.930408 70.486752 33.995564 -10.872320 5.479691 -1.058273 -2.632938 15.322962 0.234630 -0.371163 2.029341 35.646914 1.538075 9.866518 13.365227 2.931600 -0.000000 -45.752900 8.199511 -1.590739 4.137061 20.045642 6.858069 -28.431876 2.620131 0.616507 11.409644 -2.211721 -8.730329 -6.345562 178.852900 0.000000 -8.310700
3.969642 16.923201 1.042303 19.627677 69.857737 33.487125 -10.857229 5.472216 -1.120844 -2.275959 15.666107 -0.265884 -0.292517 2.123785 38.005652 1.565833 10.094591 12.446957 2.860100 -0.000000 -45.229801 8.166348 -1.555135 4.096679 20.137593 7.282735 -28.808365 2.579390 0.346791 15.064957 -2.465069 -8.274844 -10.896791 179.805400 -0.000000 -14.190300
4.173929 16.786151 1.109467 19.213105 69.212939 32.918460 -10.873353 5.458931 -1.161304 -1.892537 16.029190 -0.950023 -0.212338 2.215083 40.438539 1.603720 10.434550 11.427945 2.801600 0.000000 -44.494300 8.144085 -1.533785 4.045513 20.271946 7.615723 -29.401673 2.574353 0.025921 19.065576 -2.667120 -7.594902 -15.357179 -179.304300 -0.000000 -18.851000
4.375809 16.648088 1.173488 18.717507 68.536749 32.306373 -10.912414 5.437794 -1.184582 -1.526230 16.366639 -1.780945 -0.130337 2.306697 42.927977 1.657972 10.939623 10.305781 2.765800 -0.000000 -43.517101 8.145448 -1.525497 3.974696 20.432575 7.818971 -30.138779 2.591316 -0.332320 23.261354 -2.818664 -6.767320 -19.569203 -178.555900 0.000000 -22.314100
4.575067 16.511240 1.234081 18.083653 67.813234 31.605731 -10.976354 5.405201 -1.197579 -1.176204 16.669521 -2.759993 -0.047506 2.402066 45.472442 1.730121 11.608475 9.071707 2.739900 0.000000 -42.298300 8.163261 -1.532241 3.900227 20.633261 7.945935 -30.944066 2.615330 -0.705216 27.468630 -2.935358 -5.907542 -23.405429 -177.984000 0.000000 -24.712800
4.770879 16.377966 1.290756 17.270559 67.056580 30.794717 -11.069643 5.355591 -1.201965 -0.828818 16.902376 -3.911547 0.035916 2.506104 48.088563 1.819603 12.413826 7.716495 2.702400 0.000000 -40.839000 8.182053 -1.555175 3.833838 20.905089 8.044894 -31.753980 2.634080 -1.069759 31.513477 -3.035687 -5.120842 -26.782704 -177.575100 0.000001 -26.243199
4.962903 16.250376 1.343687 16.271619 66.262412 29.872832 -11.188494 5.286318 -1.199727 -0.488761 17.044447 -5.230131 0.120058 2.621907 50.760912 1.924229 13.317564 6.254139 2.634300 0.000000 -39.176900 8.193325 -1.593589 3.780634 21.259200 8.145670 -32.513093 2.639311 -1.410668 35.279142 -3.128596 -4.457927 -29.673654 -177.292600 -0.000000 -27.118500
5.150806 16.130375 1.393282 15.096879 65.430142 28.851880 -11.327355 5.195087 -1.192096 -0.158243 17.076993 -6.703758 0.205729 2.751610 53.465594 2.039734 14.267194 4.705467 2.517500 -0.000000 -37.349200 8.189483 -1.644930 3.742625 21.699847 8.275193 -33.172390 2.628395 -1.716957 38.677949 -3.218685 -3.943585 -32.084591 -177.094500 -0.000001 -27.543100
5.334352 16.019505 1.440424 13.786669 64.562439 27.770461 -11.477800 5.080558 -1.177857 0.153194 16.979764 -8.316497 0.294608 2.895051 56.170839 2.160517 15.206294 3.098730 2.340399 0.000000 -35.428800 8.167813 -1.705298 3.719403 22.214361 8.448488 -33.698502 2.603613 -1.982546 41.656431 -3.305851 -3.573459 -34.049539 -176.947400 0.000001 -27.695400
5.513156 15.919038 1.486411 12.420383 63.663874 26.695489 -11.627208 4.942677 -1.156139 0.421115 16.730744 -10.038869 0.388408 3.049335 58.835644 2.279987 16.080572 1.454691 2.097000 0.000000 -33.384100 8.133692 -1.769092 3.705306 22.765645 8.660811 -34.067524 2.570776 -2.205557 44.189582 -3.385343 -3.314186 -35.622101 -176.833900 0.000000 -27.719200
5.687354 15.829827 1.532667 11.061037 62.746828 25.685937 -11.767646 4.781501 -1.122261 0.633805 16.312133 -11.855323 0.488680 3.209082 61.420593 2.391392 16.839387 -0.190538 1.792200 -0.000000 -31.378901 8.089197 -1.832279 3.700627 23.321564 8.920254 -34.270886 2.537354 -2.385202 46.263928 -3.455225 -3.132901 -36.864898 -176.744500 -0.000000 -27.721501
5.856680 15.752590 1.581000 9.805882 61.822877 24.819419 -11.886981 4.599229 -1.073582 0.760510 15.705194 -13.731773 0.594969 3.366408 63.879209 2.488243 17.443630 -1.826357 1.432600 0.000000 -29.326600 8.045915 -1.889421 3.698542 23.824364 9.208007 -34.304314 2.510624 -2.523261 47.888165 -3.510270 -2.978648 -37.847362 -176.683900 0.000000 -27.768000
6.021725 15.687617 1.632857 8.692158 60.912276 24.133725 -11.982266 4.396916 -1.002588 0.802481 14.902059 -15.664587 0.705416 3.513523 66.178506 2.564713 17.859712 -3.430145 1.033500 -0.000000 -27.330200 8.004742 -1.938340 3.703785 24.248231 9.535349 -34.182017 2.496459 -2.620555 49.072450 -3.552335 -2.826172 -38.633256 -176.650799 0.000000 -27.890300
6.182637 15.635452 1.689746 7.787091 60.030987 23.673607 -12.045524 4.178322 -0.905662 0.741876 13.892154 -17.618802 0.816237 3.641781 68.273406 2.617699 18.078183 -4.985832 0.613701 -0.000000 -25.362700 7.976782 -1.974728 3.709106 24.544551 9.876135 -33.906416 2.498726 -2.678947 49.839188 -3.579272 -2.640942 -39.279914 -176.652300 0.000001 -28.072201
6.336578 15.597928 1.754079 7.295414 59.190470 23.547899 -12.048172 3.955078 -0.792801 0.473580 12.631186 -19.466990 0.922682 3.738342 70.084669 2.651208 18.145654 -6.446158 0.203700 0.000001 -23.459000 8.009426 -1.984685 3.665205 24.570380 10.087547 -33.441206 2.518325 -2.703010 50.234467 -3.574145 -2.346467 -39.838633 -176.721400 0.000000 -28.235100
6.491198 15.572569 1.824124 6.876131 58.409354 23.560311 -12.037589 3.715313 -0.631856 0.212401 11.218057 -21.388222 1.018008 3.808489 71.664041 2.656427 17.995879 -7.836179 -0.192800 -0.000000 -21.703800 8.026509 -1.990487 3.661193 24.535194 10.400567 -32.879962 2.555627 -2.687821 50.241409 -3.572679 -2.059429 -40.315539 -176.796999 -0.000000 -28.380900
6.644268 15.560968 1.901492 6.680693 57.696532 23.783086 -11.991419 3.468225 -0.431607 -0.115845 9.623858 -23.277535 1.098298 3.845116 72.953021 2.641235 17.697336 -9.112168 -0.549300 0.000000 -20.095500 8.066249 -1.981957 3.654010 24.336784 10.684018 -32.194308 2.607313 -2.637511 49.904216 -3.560515 -1.735570 -40.722929 -176.901299 -0.000000 -28.411600
